<svg id="Layer_1" data-name="Layer 1" xmlns="http://www.w3.org/2000/svg" viewBox="0 0 403.05 228.69"><defs><style>.cls-1{fill:#ed1c24;}.cls-2{fill:#231f20;}</style></defs><path class="cls-1" d="M117.39,99.54c-1-41-16-66.84-16-66.84C75.45-11.31,45.55,3.81,45.55,3.81,16.54,11-.9,70.45,0,111.09c0,1,5.73,33.1,21.75,67.77,3.43,8,12.06,44.82,17.09,46.31s10.25,1.63,13.77-2.26-3.52-8.09-3.52-8.09c-5.59-2.48-7-8.46-7-8.46-1.1-2-3.5-16.79-4.11-22.34-2.58-23.54,7.31-91.73,19.33-95,1-.27,18.92-6.88,24.48,24.25,1.36,7.56,3.54,64,4.3,76.89A134.73,134.73,0,0,1,85,215.39c-.5,5.22,0,6.79,0,6.79,4.8,7.56,19.82,2.72,14.79-3.67-7.14-9.09-2.6-35.9-1.4-39.61,1.94-6,5.64-18.72,9.49-28.64"/><path class="cls-1" d="M107.69,130.8c-2.59,6.89-2.54,14.54.54,23.84,1.09,3.56,1.94,8.21,4.84,14.27,4.31,9,15,1.51,18.63-.13,12.09-5.48,12.32-5.92,16.3-8.72,2.1-1.48,4.24-8.84,5.89-12.76l14.28-18.38c-1.15-3.7-13.22.9-14.71-1.42-5.54-11.64-20.21-10.68-21.55-13.3l-5.75-14.62a.85.85,0,0,0-.66-.1,6.24,6.24,0,0,0-3.34,2.39c-1,1.54-6.85,13.55-6.72,15.15C115.5,117.82,110.28,123.92,107.69,130.8Z"/><path class="cls-2" d="M240.27,183.18a45.53,45.53,0,0,1-3.9,19.14A43.06,43.06,0,0,1,226,216.67a47.06,47.06,0,0,1-14.53,8.92,44.87,44.87,0,0,1-16.31,3.1,33.06,33.06,0,0,1-21.48-7.59q-9.32-7.59-13.2-21.83l8-2.07A31.25,31.25,0,0,0,177.66,212a22.27,22.27,0,0,0,15.4,6q13.2,0,18.64-8.27t5.43-23a80.8,80.8,0,0,0-6.85-31.68q-6.84-16.16-20.8-35.55T168.81,80.86q-6.72-19.14-6.72-34.65a52.69,52.69,0,0,1,3-18.23,42.56,42.56,0,0,1,8-13.83,34.59,34.59,0,0,1,12-8.8,36.61,36.61,0,0,1,15-3.1q8.28,0,18.61,8.73V0h9.89V33.22H218.7q0-9.06-4.91-14.62T200.08,13q-15.53,0-15.52,25.34,0,30.53,27.72,71.37,14,20.43,21,38A95.29,95.29,0,0,1,240.27,183.18Z"/><path class="cls-2" d="M295.82,226h-46V215.21h3.66a12.56,12.56,0,0,0,4-.51A4.12,4.12,0,0,0,259.7,212a22.71,22.71,0,0,0,.91-6.48q.13-4.27.39-11.78.28-10.87.42-24.21t.28-26.8q.14-13.47.28-26.16t.14-22.65V70.71q0-9.82-.26-21t-1.31-26.68q-.53-5.17-2.63-6.21c-1.41-.69-4.12-1-8.15-1V4.94h46V15.82a15.47,15.47,0,0,0-3-.26c-3.88,0-6.23,2.5-7.08,7.51q-.27,1-.69,10t-.82,21.11q-.42,12.17-.69,25.24t-.27,22.66q0,25.11.56,48.81t.57,46.49a55.19,55.19,0,0,0,.38,6.6,18.6,18.6,0,0,0,1.52,5.69,9.69,9.69,0,0,0,3.44,4,10.76,10.76,0,0,0,6.11,1.55Z"/><path class="cls-2" d="M403.05,29.88H392.7q0-8.1-2.07-11.24t-9.06-3.14a25.34,25.34,0,0,0-9.83,1.56q-3.63,1.56-5.31,7.51t-2.2,17.61q-.51,11.67-.52,32.12v82.12c0,4.32.05,8.84.14,13.6s.21,9.4.39,14,.34,8.89.52,12.95.35,7.64.52,10.75c.17,2.94,1,4.92,2.59,6s4.83,1.55,9.83,1.55V226H328V215.21H330q8.79,0,10.09-7.51.25-1.29.52-7t.51-13.21c.17-5,.35-10.32.51-15.94s.26-10.67.26-15.16V72.2q0-5.94-.13-11.39t-.26-11.14q-.12-5.7-.5-12.18T340.12,23c-.34-3.12-1.12-5.1-2.33-6s-3.36-1.29-6.46-1.29H321.5q-6.74,0-6.74,14.15H304.67V4.94h98.38Z"/></svg>