<svg width="30" height="30" viewBox="0 0 30 30" fill="none" xmlns="http://www.w3.org/2000/svg">
<path d="M3 2H27V16C27 22.6274 21.6274 28 15 28V28C8.37258 28 3 22.6274 3 16V2Z" fill="#A48B75"/>
<path d="M8 19H22V19C22 21.2091 20.2091 23 18 23H12C9.79086 23 8 21.2091 8 19V19Z" fill="#F2F4F3"/>
<mask id="path-3-inside-1" fill="white">
<path d="M14 12C14 11.4747 13.8965 10.9546 13.6955 10.4693C13.4945 9.98396 13.1999 9.54301 12.8284 9.17157C12.457 8.80014 12.016 8.5055 11.5307 8.30448C11.0454 8.10346 10.5253 8 10 8C9.47471 8 8.95457 8.10346 8.46927 8.30448C7.98396 8.5055 7.54301 8.80014 7.17157 9.17157C6.80014 9.54301 6.5055 9.98396 6.30448 10.4693C6.10346 10.9546 6 11.4747 6 12L10 12H14Z"/>
</mask>
<path d="M14 12C14 11.4747 13.8965 10.9546 13.6955 10.4693C13.4945 9.98396 13.1999 9.54301 12.8284 9.17157C12.457 8.80014 12.016 8.5055 11.5307 8.30448C11.0454 8.10346 10.5253 8 10 8C9.47471 8 8.95457 8.10346 8.46927 8.30448C7.98396 8.5055 7.54301 8.80014 7.17157 9.17157C6.80014 9.54301 6.5055 9.98396 6.30448 10.4693C6.10346 10.9546 6 11.4747 6 12L10 12H14Z" stroke="#F2F4F3" stroke-width="2" mask="url(#path-3-inside-1)"/>
<mask id="path-4-inside-2" fill="white">
<path d="M24 12C24 11.4747 23.8965 10.9546 23.6955 10.4693C23.4945 9.98396 23.1999 9.54301 22.8284 9.17157C22.457 8.80014 22.016 8.5055 21.5307 8.30448C21.0454 8.10346 20.5253 8 20 8C19.4747 8 18.9546 8.10346 18.4693 8.30448C17.984 8.5055 17.543 8.80014 17.1716 9.17157C16.8001 9.54301 16.5055 9.98396 16.3045 10.4693C16.1035 10.9546 16 11.4747 16 12L20 12H24Z"/>
</mask>
<path d="M24 12C24 11.4747 23.8965 10.9546 23.6955 10.4693C23.4945 9.98396 23.1999 9.54301 22.8284 9.17157C22.457 8.80014 22.016 8.5055 21.5307 8.30448C21.0454 8.10346 20.5253 8 20 8C19.4747 8 18.9546 8.10346 18.4693 8.30448C17.984 8.5055 17.543 8.80014 17.1716 9.17157C16.8001 9.54301 16.5055 9.98396 16.3045 10.4693C16.1035 10.9546 16 11.4747 16 12L20 12H24Z" stroke="#F2F4F3" stroke-width="2" mask="url(#path-4-inside-2)"/>
</svg>
