<svg width="14" height="24" viewBox="0 0 14 24" fill="none" xmlns="http://www.w3.org/2000/svg">
<path d="M7.7499 10.625C4.9124 9.8875 3.9999 9.125 3.9999 7.9375C3.9999 6.575 5.2624 5.625 7.3749 5.625C9.5999 5.625 10.4249 6.6875 10.4999 8.25H13.2624C13.1749 6.1 11.8624 4.125 9.2499 3.4875V0.75H5.4999V3.45C3.0749 3.975 1.1249 5.55 1.1249 7.9625C1.1249 10.85 3.5124 12.2875 6.9999 13.125C10.1249 13.875 10.7499 14.975 10.7499 16.1375C10.7499 17 10.1374 18.375 7.3749 18.375C4.7999 18.375 3.7874 17.225 3.6499 15.75H0.899902C1.0499 18.4875 3.0999 20.025 5.4999 20.5375V23.25H9.2499V20.5625C11.6874 20.1 13.6249 18.6875 13.6249 16.125C13.6249 12.575 10.5874 11.3625 7.7499 10.625Z" fill="#DED5CE"/>
</svg>
