<svg width="57" height="77" viewBox="0 0 57 77" fill="none" xmlns="http://www.w3.org/2000/svg">
<path d="M35.671 13.274C32.3613 3.70282 22.8 0.021608 20.5935 0.021608C15.0774 -0.346513 10.6645 4.07094 8.09032 7.01591C5.51613 9.96088 2.94194 17.6914 2.57419 18.7958C2.20645 19.9002 0 28.7351 0 35.3612C0 41.9874 2.94194 49.3499 4.4129 53.3992C5.88387 57.4485 10.2968 69.5965 11.0323 72.9096C11.7677 76.2227 14.3419 76.9589 15.4452 76.9589C16.5484 76.9589 18.0194 75.4865 18.0194 75.1183C18.0194 74.7502 17.6516 74.7502 16.5484 73.6459C15.4452 72.5415 15.0774 71.8053 13.9742 69.2284C12.871 66.6516 12.5032 60.0254 12.5032 58.5529C12.5032 57.0804 13.9742 43.4599 15.8129 36.4656C17.2839 30.8702 19.8581 29.7167 20.9613 29.8394C21.6968 29.7167 23.609 30.0603 25.3742 32.4163C27.5806 35.3612 27.9484 36.4656 28.3161 43.4599C28.6103 49.0554 28.929 67.3878 29.0516 75.8546C29.5419 76.1 30.8903 76.6645 32.3613 76.9589C34.2 77.3271 34.2 75.1183 33.8323 74.3821C33.4645 73.6459 33.4645 73.2777 33.0968 72.5415C32.729 71.8053 32.729 69.2284 33.0968 62.9703C33.391 57.9639 35.4258 53.5219 36.4065 51.9267C36.7742 52.5402 37.5832 53.9882 37.8774 54.8717C38.2452 55.976 38.9806 57.4485 39.3484 58.1848C39.7161 58.921 41.9226 58.921 43.7613 57.8166C45.6 56.7123 48.5419 54.8717 49.2774 54.5036C50.0129 54.1354 51.1161 53.0311 51.8516 51.9267C52.5871 50.8223 52.5871 50.0861 54.0581 47.5092C55.2348 45.4478 56.5097 43.9507 57 43.4599C55.7742 43.4599 53.1755 43.3863 52.5871 43.0918C51.8516 42.7237 51.1161 41.6193 49.2774 40.5149C47.4387 39.4106 46.7032 39.4106 45.6 39.0425C44.7174 38.748 43.271 35.484 42.6581 33.8888C42.4129 34.1342 41.7019 34.9931 40.8194 36.4656C39.9368 37.9381 38.9806 39.7787 38.6129 40.5149C38.9806 39.0425 39.7161 35.0667 39.7161 30.9438C39.7161 25.7901 38.9806 22.8451 35.671 13.274Z" fill="#D20C16"/>
</svg>
