<svg id="Layer_1" data-name="Layer 1" xmlns="http://www.w3.org/2000/svg" viewBox="0 0 399.68 260.54"><defs><style>.cls-1{fill:#ed1c24;}.cls-2{fill:#fff;}.cls-3{fill-opacity:0;stroke:#fff;stroke-linecap:round;stroke-linejoin:round;}</style></defs><path id="path20" class="cls-1" d="M117.14,98.45c-.94-40.53-15.84-66.11-15.84-66.11C75.66-11.19,46.09,3.77,46.09,3.77,17.39,10.88.15,69.68,1.07,109.88c0,1,5.67,32.73,21.51,67,3.4,7.87,11.94,44.33,16.91,45.8s10.14,1.61,13.62-2.24-3.48-8-3.48-8c-5.54-2.45-6.93-8.37-6.93-8.37-1.08-1.93-3.46-16.6-4.06-22.09-2.55-23.28,7.23-90.73,19.12-93.92,1-.27,18.71-6.81,24.21,24,1.34,7.47,3.5,63.29,4.25,76.05A132.73,132.73,0,0,1,85.09,213c-.5,5.17,0,6.72,0,6.72,4.75,7.48,19.61,2.69,14.63-3.63-7.06-9-2.56-35.51-1.38-39.17,1.92-5.9,5.57-18.53,9.39-28.34"/><path id="path22" class="cls-1" d="M107.55,129.37c-2.56,6.81-2.52,14.38.53,23.58,1.08,3.52,1.92,8.12,4.79,14.11,4.26,8.94,14.85,1.5,18.43-.13,11.95-5.42,12.18-5.85,16.12-8.62,2.08-1.47,4.2-8.74,5.82-12.62l14.13-18.18c-1.14-3.66-13.08.89-14.55-1.41-5.48-11.51-20-10.55-21.32-13.15l-5.69-14.46a.82.82,0,0,0-.65-.1,6.17,6.17,0,0,0-3.3,2.37c-.94,1.52-6.77,13.4-6.65,15,.06.79-5.1,6.83-7.66,13.63"/><path id="path24" class="cls-2" d="M238.68,181.18a45,45,0,0,1-3.86,18.92,42.51,42.51,0,0,1-10.28,14.2,46.64,46.64,0,0,1-14.37,8.82A44.39,44.39,0,0,1,194,226.19a32.65,32.65,0,0,1-21.25-7.51q-9.22-7.5-13-21.58l7.93-2a31,31,0,0,0,9.09,14.59A22,22,0,0,0,192,215.52q13,0,18.43-8.17t5.37-22.77A80,80,0,0,0,209,153.25q-6.78-16-20.57-35.17T168,80q-6.65-18.91-6.64-34.27a52.34,52.34,0,0,1,2.94-18A42.21,42.21,0,0,1,172.22,14a34.5,34.5,0,0,1,11.89-8.7,36.2,36.2,0,0,1,14.83-3.07q8.17,0,18.41,8.64V0h9.77V32.86h-9.77q0-9-4.86-14.47t-13.56-5.5q-15.36,0-15.35,25.06,0,30.18,27.42,70.59,13.84,20.2,20.76,37.6a94.14,94.14,0,0,1,6.92,35"/><path id="path26" class="cls-2" d="M293.62,223.52H248.07V212.86h3.62a12.33,12.33,0,0,0,4-.51,4,4,0,0,0,2.2-2.69,21.9,21.9,0,0,0,.9-6.4q.13-4.23.39-11.66.29-10.75.42-23.94t.28-26.51q.14-13.34.27-25.88t.14-22.4V69.94q0-9.72-.26-20.74t-1.29-26.38q-.53-5.12-2.61-6.15c-1.39-.68-4.07-1-8.06-1V4.89h45.55V15.64a16,16,0,0,0-3-.25q-5.75,0-7,7.43-.27,1-.68,9.86t-.81,20.87q-.42,12-.68,25t-.27,22.42q0,24.84.56,48.27t.55,46a54,54,0,0,0,.38,6.53,18.21,18.21,0,0,0,1.51,5.63,9.51,9.51,0,0,0,3.39,4,10.67,10.67,0,0,0,6.05,1.54Z"/><path id="path28" class="cls-2" d="M399.68,29.55H389.44q0-8-2.05-11.12t-9-3.1a25.26,25.26,0,0,0-9.72,1.54q-3.58,1.54-5.25,7.43t-2.18,17.42q-.51,11.53-.51,31.77v81.22q0,6.4.13,13.45c.09,4.69.21,9.3.39,13.83s.34,8.8.51,12.81.35,7.55.53,10.63c.16,2.9,1,4.87,2.55,5.89s4.78,1.54,9.73,1.54v10.66h-49.2V212.86h2q8.7,0,10-7.43a68,68,0,0,0,.51-6.92q.26-5.64.51-13.06t.5-15.77c.17-5.54.26-10.55.26-15V71.41c0-3.92-.05-7.68-.13-11.27s-.17-7.26-.25-11-.26-7.77-.51-12-.55-9-.89-14.35c-.34-3.07-1.11-5-2.31-5.89s-3.32-1.29-6.39-1.29H319q-6.66,0-6.66,14h-10V4.89h97.31Z"/><path id="path30" class="cls-3" d="M109.28,252.79H.5"/><path id="path32" class="cls-3" d="M398.05,252.79H289.27"/><path id="path34" class="cls-2" d="M123.2,257c0-.6,0-1.2,0-1.81s0-1.2,0-1.8a3.73,3.73,0,0,1-1,1l-1.09.78a4.6,4.6,0,0,0-.89.87,1.93,1.93,0,0,0-.37,1.22,1.48,1.48,0,0,0,.44,1.16,1.82,1.82,0,0,0,1.31.41,1.43,1.43,0,0,0,1.16-.56,1.9,1.9,0,0,0,.46-1.25m4.18,1.6a1.9,1.9,0,0,1-.53,1.36,1.82,1.82,0,0,1-1.36.56,2,2,0,0,1-1.91-1.2,6.75,6.75,0,0,1-1.48.9,3.66,3.66,0,0,1-1.45.32,3.8,3.8,0,0,1-2.63-.8,2.94,2.94,0,0,1-.88-2.31,2.8,2.8,0,0,1,.31-1.32,2.17,2.17,0,0,1,1-.92c.42-.21.86-.41,1.31-.61s.88-.4,1.28-.61a11.79,11.79,0,0,0,1.16-.68,3.91,3.91,0,0,0,.92-.84c0-.63-.06-1.15-.11-1.55a3.18,3.18,0,0,0-.24-1,1,1,0,0,0-.45-.48,1.93,1.93,0,0,0-.74-.13q-1.56,0-1.56.72a1.64,1.64,0,0,1,1.08,1.7,1.86,1.86,0,0,1-.46,1.23,1.41,1.41,0,0,1-1.11.53,1.45,1.45,0,0,1-1.14-.51,1.73,1.73,0,0,1-.45-1.19,3.93,3.93,0,0,1,.29-1.55,3.39,3.39,0,0,1,.81-1.12,3.6,3.6,0,0,1,1.23-.69,4.62,4.62,0,0,1,1.5-.24,5.15,5.15,0,0,1,1.66.24,2.19,2.19,0,0,1,1.16,1,5.72,5.72,0,0,1,.67,2,22.91,22.91,0,0,1,.21,3.47c0,1.33,0,2.36.09,3.1s.21,1.11.44,1.11a.36.36,0,0,0,.28-.16.75.75,0,0,0,.12-.45v-.83h1Z"/><path id="path36" class="cls-2" d="M149.51,260.26h-4.76v-1.11h.37q.56,0,.66-.42a7.3,7.3,0,0,0,.11-1.55c0-.8,0-1.53,0-2.18s0-1.27,0-1.83a9.87,9.87,0,0,0-.31-2.86,1.34,1.34,0,0,0-1.45-1,1.82,1.82,0,0,0-.9.2,1.25,1.25,0,0,0-.53.6,3.19,3.19,0,0,0-.26,1,12.7,12.7,0,0,0-.06,1.31v5c0,.37,0,.67,0,.9a1.13,1.13,0,0,0,.13.54.56.56,0,0,0,.35.27,2.76,2.76,0,0,0,.68.07v1.11h-4.76v-1.11h.37a.65.65,0,0,0,.69-.56,7.75,7.75,0,0,0,.14-1.68c0-1.12,0-2.11,0-3s0-1.56,0-2.08,0-.92,0-1.22a1.61,1.61,0,0,0-.17-.69.7.7,0,0,0-.37-.33,2.15,2.15,0,0,0-.63-.07v-1.12c.48,0,.86,0,1.16.08a2.38,2.38,0,0,1,.71.17,1.16,1.16,0,0,1,.47.35,5.43,5.43,0,0,1,.4.57,2.46,2.46,0,0,1,1.06-1,3.48,3.48,0,0,1,1.51-.34,5,5,0,0,1,2.3.44,3,3,0,0,1,1.26,1.19,4.19,4.19,0,0,1,.53,1.7,18.09,18.09,0,0,1,.11,2c0,.75,0,1.37,0,1.88s0,.93,0,1.3,0,.67,0,.93,0,.5,0,.73.07.53.2.61a1.83,1.83,0,0,0,.89.14Z"/><path id="path38" class="cls-2" d="M171.61,260.26h-4.76v-1.11h.37c.38,0,.6-.14.67-.42a7.52,7.52,0,0,0,.1-1.55c0-.8,0-1.53,0-2.18s0-1.27,0-1.83a10.31,10.31,0,0,0-.3-2.86,1.36,1.36,0,0,0-1.45-1,1.83,1.83,0,0,0-.91.2,1.25,1.25,0,0,0-.53.6,3.19,3.19,0,0,0-.25,1,10.25,10.25,0,0,0-.07,1.31v5c0,.37,0,.67,0,.9a1,1,0,0,0,.13.54.54.54,0,0,0,.34.27,2.83,2.83,0,0,0,.68.07v1.11H161v-1.11h.37a.64.64,0,0,0,.69-.56,7.16,7.16,0,0,0,.14-1.68c0-1.12,0-2.11,0-3s0-1.56,0-2.08,0-.92,0-1.22a1.77,1.77,0,0,0-.17-.69.7.7,0,0,0-.37-.33,2.22,2.22,0,0,0-.64-.07v-1.12c.48,0,.87,0,1.16.08a2.54,2.54,0,0,1,.72.17,1.13,1.13,0,0,1,.46.35,4.26,4.26,0,0,1,.4.57,2.46,2.46,0,0,1,1.06-1,3.49,3.49,0,0,1,1.52-.34,5.06,5.06,0,0,1,2.3.44,3.08,3.08,0,0,1,1.26,1.19,4.53,4.53,0,0,1,.53,1.7,18.15,18.15,0,0,1,.1,2c0,.75,0,1.37,0,1.88s0,.93,0,1.3,0,.67,0,.93,0,.5,0,.73.07.53.2.61a1.86,1.86,0,0,0,.89.14Z"/><path id="path40" class="cls-2" d="M187.68,249.28a1.4,1.4,0,0,0-.68.17,1.73,1.73,0,0,0-.54.47,2.12,2.12,0,0,0-.34.67,2.48,2.48,0,0,0-.12.77v5.91a2.26,2.26,0,0,0,.49,1.46,1.47,1.47,0,0,0,1.19.61,1.41,1.41,0,0,0,1.17-.64,2.3,2.3,0,0,0,.48-1.43v-5.91a2.48,2.48,0,0,0-.12-.77,2.33,2.33,0,0,0-.33-.67,1.78,1.78,0,0,0-.52-.47,1.43,1.43,0,0,0-.68-.17m0-1.12a3.29,3.29,0,0,1,1.65.44,4.46,4.46,0,0,1,1.35,1.18,5.88,5.88,0,0,1,1.24,3.66v1.75a6,6,0,0,1-.33,2,6.16,6.16,0,0,1-.91,1.68,4.43,4.43,0,0,1-1.35,1.17,3.29,3.29,0,0,1-1.65.44A3.4,3.4,0,0,1,186,260a4.62,4.62,0,0,1-1.34-1.16,5.45,5.45,0,0,1-.89-1.67,6.12,6.12,0,0,1-.32-2v-1.75a6.07,6.07,0,0,1,.32-2,5.39,5.39,0,0,1,.89-1.68A4.62,4.62,0,0,1,186,248.6a3.4,3.4,0,0,1,1.68-.44"/><path id="path42" class="cls-2" d="M220.6,260.26h-4.76v-1.11h.4q.64,0,.72-.75s0-.32,0-.86,0-1.19.06-2,0-1.55.05-2.36,0-1.52,0-2.1c0-1.54-.06-3.5-.16-5.88h-1.12v-1.09a3.1,3.1,0,0,0,.82-.18,2.9,2.9,0,0,0,.74-.44,2.34,2.34,0,0,0,.55-.66,1.78,1.78,0,0,0,.24-.76h1.14v4.51c0,.84,0,1.56,0,2.17s0,1.17,0,1.66,0,1,0,1.39,0,.85,0,1.3c0,.79,0,1.63.06,2.48s.12,1.89.26,3.07c.07.31.41.46,1,.46Z"/><path id="path44" class="cls-2" d="M236.45,243a1.24,1.24,0,0,0-1.09.62,2.67,2.67,0,0,0-.4,1.48v4.09c0,1.61.55,2.42,1.65,2.42a2.21,2.21,0,0,0,1.86-1.17c0-.11,0-.29,0-.54s0-.49,0-.74v-1.11a21.17,21.17,0,0,0-.13-2.68,5.29,5.29,0,0,0-.38-1.52,1.28,1.28,0,0,0-.64-.69,2.24,2.24,0,0,0-.89-.16m0-1.12a4.37,4.37,0,0,1,1.85.37,3.29,3.29,0,0,1,1.36,1.22,6.34,6.34,0,0,1,.85,2.21,15.86,15.86,0,0,1,.29,3.35,14.22,14.22,0,0,1-.5,3.78,13.86,13.86,0,0,1-1.39,3.39,10.46,10.46,0,0,1-2.1,2.6,6.39,6.39,0,0,1-2.62,1.45l-.13-.66a5,5,0,0,0,3.15-2.61,13.3,13.3,0,0,0,1.26-5.79,3,3,0,0,1-2.52,1.51,2.42,2.42,0,0,1-1.41-.43,4.28,4.28,0,0,1-1.12-1.16,5.65,5.65,0,0,1-.74-1.65,6.85,6.85,0,0,1-.27-1.92,7,7,0,0,1,1.09-4.21,3.49,3.49,0,0,1,2.95-1.45"/><path id="path46" class="cls-2" d="M257.39,260.26h-4.76v-1.11H253q.64,0,.72-.75s0-.32,0-.86,0-1.19,0-2,0-1.55.05-2.36,0-1.52,0-2.1q0-2.31-.16-5.88h-1.11v-1.09a3.12,3.12,0,0,0,.81-.18,2.9,2.9,0,0,0,.74-.44,2.34,2.34,0,0,0,.55-.66,1.78,1.78,0,0,0,.24-.76h1.15v4.51c0,.84,0,1.56,0,2.17s0,1.17,0,1.66,0,1,0,1.39,0,.85,0,1.3c0,.79,0,1.63.05,2.48s.12,1.89.27,3.07c.06.31.4.46,1,.46Z"/><path id="path48" class="cls-2" d="M277.43,247.52q0-4.58-2.92-4.57a2.91,2.91,0,0,0-1.21.22,2,2,0,0,0-.81.78,4.23,4.23,0,0,0-.46,1.42,13,13,0,0,0-.15,2.15v8q0,3.92,2.63,3.91a2.52,2.52,0,0,0,2.18-1,4.82,4.82,0,0,0,.74-2.87Zm2.59,6.34a10.13,10.13,0,0,1-.34,2.74,6.34,6.34,0,0,1-1,2.1,4.64,4.64,0,0,1-1.66,1.36,5.18,5.18,0,0,1-2.29.48,5.49,5.49,0,0,1-2.41-.5,4.37,4.37,0,0,1-1.69-1.38,6.24,6.24,0,0,1-1-2.11,10.84,10.84,0,0,1-.32-2.69v-4.34a15.82,15.82,0,0,1,.3-3.22,6.8,6.8,0,0,1,.94-2.42,4.53,4.53,0,0,1,1.68-1.52,5.45,5.45,0,0,1,2.51-.53,4.88,4.88,0,0,1,2.43.57A4.65,4.65,0,0,1,278.8,244a7.42,7.42,0,0,1,.93,2.43,15.78,15.78,0,0,1,.29,3.1Z"/></svg>